# xmcd
#
# Track frame offsets: 
#        150
#        12259
#        23536
#        35836
#        49345
#        63074
#        76598
#        89705
#        104059
#        117894
#        133251
#        146316
#        159038
#        171558
#        185886
#        199826
#        211316
#        222970
#        235996
#        248420
#        261230
#        275025
#        288175
#        302226
#        314722
#        327446
#
# Disc length: 4533 seconds
#
# Revision: 0
# Processed by: cddbd v1.5.2PL0 Copyright (c) Steve Scherf et al.
# Submitted via: ExactAudioCopy v0.99pb5
#
DISCID=8811b31a
DTITLE=Little Walter AndThe Kings Of The Blues Harmonica - Blowing And
DTITLE=Sucking - Blues WIth A Feeling
DYEAR=2008
DGENRE=Blues
TTITLE0=Ora Nellee Blues
TTITLE1=I Just Keep Loving Her
TTITLE2=Juka
TTITLE3=Can´t Hold Out Much Longer
TTITLE4=Blue Midnight
TTITLE5=Boogie
TTITLE6=Mean Old World
TTITLE7=Sad Hours
TTITLE8=Don´t Have To Hurt No More
TTITLE9=Crazy Legs
TTITLE10=Tonight With A Fool
TTITLE11=Off The Wall
TTITLE12=Tell Me Mama
TTITLE13=Quarter To Twelve
TTITLE14=Blues With A Feeling
TTITLE15=Last Boogie
TTITLE16=Too Late
TTITLE17=Fast Boogie
TTITLE18=Lights Out
TTITLE19=Fast Large One
TTITLE20=You´re So Fine
TTITLE21=Come Back Baby
TTITLE22=Rocker
TTITLE23=Oh Baby
TTITLE24=I Got To Find My Baby
TTITLE25=Big Leg Mama
EXTD=
EXTT0=
EXTT1=
EXTT2=
EXTT3=
EXTT4=
EXTT5=
EXTT6=
EXTT7=
EXTT8=
EXTT9=
EXTT10=
EXTT11=
EXTT12=
EXTT13=
EXTT14=
EXTT15=
EXTT16=
EXTT17=
EXTT18=
EXTT19=
EXTT20=
EXTT21=
EXTT22=
EXTT23=
EXTT24=
EXTT25=
PLAYORDER=
